<svg xmlns="http://www.w3.org/2000/svg" viewBox="0 0 1000 850" font-family="'Segoe UI', 'Courier New', monospace">
  <defs>
    <filter id="shadow" x="-5%" y="-5%" width="120%" height="120%">
      <feDropShadow dx="2" dy="2" stdDeviation="3" flood-color="#000" flood-opacity="0.35"/>
    </filter>
    <linearGradient id="sky" x1="0" y1="0" x2="0" y2="1">
      <stop offset="0%" stop-color="#16162a"/>
      <stop offset="100%" stop-color="#2a2a40"/>
    </linearGradient>
    <linearGradient id="ground" x1="0" y1="0" x2="0" y2="1">
      <stop offset="0%" stop-color="#3a3a3a"/>
      <stop offset="100%" stop-color="#2a2a2a"/>
    </linearGradient>
    <pattern id="grid" width="20" height="20" patternUnits="userSpaceOnUse">
      <path d="M 20 0 L 0 0 0 20" fill="none" stroke="#3a3a3a" stroke-width="0.3"/>
    </pattern>
  </defs>

  <!-- иғҢжҷҜ -->
  <rect width="1000" height="850" fill="url(#sky)"/>
  <rect y="320" width="1000" height="530" fill="url(#ground)"/>
  <rect y="320" width="1000" height="530" fill="url(#grid)" opacity="0.5"/>

  <!-- ж ҮйўҳеҢә -->
  <rect x="250" y="15" width="500" height="60" rx="4" fill="#1a1a2e" opacity="0.8" stroke="#c9a87c" stroke-width="1"/>
  <text x="500" y="40" text-anchor="middle" fill="#c9a87c" font-size="20" font-weight="bold" letter-spacing="6">зҲұдёҒе Ў В· йҡҗз§ҳд№Ӣеҹҹ</text>
  <text x="500" y="60" text-anchor="middle" fill="#7a7a8a" font-size="10" letter-spacing="2">Edinburgh, 1590 вҖ” A City of Secrets</text>

  <!-- ===== ең°еҪўең°иІҢ ===== -->

  <!-- еҢ—ж№–пјҲжІјжіҪпјү -->
  <ellipse cx="500" cy="260" rx="180" ry="40" fill="#3a4a3a" opacity="0.5"/>
  <text x="500" y="265" text-anchor="middle" fill="#5a7a5a" font-size="9" opacity="0.7">вӢ® Nor' Loch еҢ—ж№–жІјжіҪ вӢ®</text>

  <!-- дәҡз‘ҹзҺӢеә§ -->
  <path d="M 780 580 Q 830 380 880 580" fill="#5a5a3a" opacity="0.6"/>
  <ellipse cx="830" cy="560" rx="70" ry="50" fill="#4a4a3a" opacity="0.4"/>

  <!-- зҙўе°”е…№дјҜйҮҢеіӯеЈҒ -->
  <path d="M 750 520 Q 780 450 820 520" fill="#5a5a4a" opacity="0.4"/>

  <!-- еҚЎе°”йЎҝеұұ -->
  <ellipse cx="800" cy="340" rx="55" ry="25" fill="#5a5a3a" opacity="0.4"/>

  <!-- еҹҺеўҷ -->
  <path d="M 150 370 L 150 600 L 450 600 L 450 370" fill="none" stroke="#7a6a4a" stroke-width="2.5" stroke-dasharray="8,4" opacity="0.5"/>
  <text x="280" y="610" text-anchor="middle" fill="#6a5a4a" font-size="9" opacity="0.6">еҹҺ еўҷ зәҝ</text>

  <!-- ===== иҖҒеҹҺеҢә ===== -->
  <rect x="160" y="380" width="280" height="35" rx="0" fill="#6a5a4a" opacity="0.2"/>

  <!-- ===== иҝһжҺҘзәҝ ===== -->

  <!-- еҚ—дҫ§з»„иҝһйҖҡ -->
  <line x1="170" y1="500" x2="185" y2="510" stroke="#6a7a4a" stroke-width="1"/>
  <line x1="185" y1="510" x2="195" y2="540" stroke="#6a7a4a" stroke-width="1"/>
  <line x1="195" y1="540" x2="200" y2="570" stroke="#6a7a4a" stroke-width="1"/>

  <!-- дёңдҫ§иҝһйҖҡ -->
  <line x1="440" y1="440" x2="480" y2="460" stroke="#6a5a3a" stroke-width="1"/>
  <line x1="480" y1="460" x2="520" y2="475" stroke="#6a5a3a" stroke-width="1"/>
  <line x1="520" y1="475" x2="590" y2="495" stroke="#6a5a3a" stroke-width="1"/>
  <line x1="590" y1="495" x2="660" y2="510" stroke="#6a5a3a" stroke-width="1"/>
  <line x1="660" y1="510" x2="720" y2="530" stroke="#6a5a3a" stroke-width="1"/>
  <line x1="720" y1="530" x2="780" y2="540" stroke="#6a5a3a" stroke-width="1"/>
  <line x1="780" y1="540" x2="810" y2="550" stroke="#6a5a3a" stroke-width="1"/>

  <!-- е…¬еӣӯвҶ’еіӯеЈҒвҶ’дәҡз‘ҹзҺӢеә§ -->
  <line x1="640" y1="495" x2="700" y2="520" stroke="#6a5a3a" stroke-width="1"/>
  <line x1="700" y1="520" x2="760" y2="535" stroke="#6a5a3a" stroke-width="1"/>

  <!-- е…¬еӣӯвҶ’еҲ©ж–Ҝи·Ҝ -->
  <line x1="600" y1="490" x2="650" y2="310" stroke="#6a5a3a" stroke-width="1" stroke-dasharray="3,3"/>

  <!-- й«ҳиЎ—жЁӘз©ҝеҚ—дҫ§ -->
  <line x1="230" y1="430" x2="210" y2="465" stroke="#7a6a5a" stroke-width="1"/>
  <line x1="230" y1="430" x2="230" y2="465" stroke="#7a6a5a" stroke-width="1"/>
  <line x1="230" y1="430" x2="180" y2="480" stroke="#7a6a5a" stroke-width="1"/>

  <!-- зҡҮе®¶иӢұйҮҢж®өй—ҙиҝһжҺҘ -->
  <line x1="190" y1="420" x2="200" y2="395" stroke="#8b6f47" stroke-width="1.2"/>
  <line x1="200" y1="395" x2="220" y2="395" stroke="#8b6f47" stroke-width="1.2"/>
  <line x1="220" y1="395" x2="250" y2="405" stroke="#8b6f47" stroke-width="1.2"/>
  <line x1="250" y1="405" x2="290" y2="395" stroke="#8b6f47" stroke-width="1.2"/>
  <line x1="290" y1="395" x2="345" y2="400" stroke="#8b6f47" stroke-width="1.2"/>
  <line x1="345" y1="400" x2="410" y2="405" stroke="#8b6f47" stroke-width="1.2"/>

  <!-- еҹҺе ЎдёҳвҶ”иҘҝеј“иЎ— -->
  <line x1="175" y1="390" x2="150" y2="445" stroke="#7a6a5a" stroke-width="1"/>

  <!-- еёғеёӮвҶ’иҘҝеј“иЎ— -->
  <line x1="185" y1="425" x2="165" y2="445" stroke="#7a6a5a" stroke-width="1"/>

  <!-- еёғеёӮвҶ’зүӣй—Ё -->
  <line x1="195" y1="430" x2="215" y2="480" stroke="#7a6a5a" stroke-width="1"/>

  <!-- еӨ§ж•ҷе ӮвҶ’еў“еӣӯ -->
  <line x1="205" y1="410" x2="175" y2="485" stroke="#7a6a5a" stroke-width="1"/>

  <!-- дҝ®йҒ“йҷўиЎ—вҶ’зүӣй—Ё -->
  <line x1="310" y1="425" x2="260" y2="480" stroke="#7a6a5a" stroke-width="1"/>

  <!-- еҶ…е Ўй—ЁвҶ’е…¬еӣӯе…ҘеҸЈ -->
  <line x1="340" y1="435" x2="490" y2="465" stroke="#7a6a5a" stroke-width="1"/>

  <!-- еҶ…е Ўй—ЁвҶ’дҝ®йҒ“йҷўиЎ— -->
  <line x1="340" y1="435" x2="345" y2="400" stroke="#7a6a5a" stroke-width="1"/>

  <!-- й«ҳиЎ—вҶ’ж јжӢүж–ҜеёӮеңә -->
  <line x1="230" y1="430" x2="185" y2="465" stroke="#7a6a5a" stroke-width="1"/>

  <!-- ж јжӢүж–ҜеёӮеңәвҶ’зүӣй—Ё -->
  <line x1="200" y1="470" x2="230" y2="480" stroke="#7a6a5a" stroke-width="1"/>

  <!-- й«ҳиЎ—вҶ’еҶ…е Ўй—Ё -->
  <line x1="280" y1="415" x2="340" y2="435" stroke="#8b6f47" stroke-width="1"/>

  <!-- зүӣй—ЁвҶ’ең°дёӢжӢұйЎ¶пјҲиҷҡзәҝпјү -->
  <line x1="240" y1="495" x2="240" y2="590" stroke="#5a3a3a" stroke-width="1.5" stroke-dasharray="4,3"/>

  <!-- ең°дёӢжӢұйЎ¶вҶ’зҺӣиҺүйҮ‘е·· -->
  <line x1="260" y1="605" x2="320" y2="610" stroke="#5a3a3a" stroke-width="1" stroke-dasharray="3,2"/>

  <!-- ең°дёӢжӢұйЎ¶вҶ’ж°ҙзӘ– -->
  <line x1="240" y1="615" x2="260" y2="640" stroke="#5a3a3a" stroke-width="1" stroke-dasharray="3,2"/>

  <!-- зҺӣиҺүйҮ‘е··вҶ’й«ҳиЎ—пјҲзү№ж®Ҡиҷҡзәҝпјү -->
  <line x1="320" y1="610" x2="250" y2="420" stroke="#5a3a3a" stroke-width="1" stroke-dasharray="2,3"/>

  <!-- ж°ҙзӘ–вҶ’е…¬еӣӯпјҲжҡ—жІіиҷҡзәҝпјү -->
  <line x1="300" y1="650" x2="590" y2="490" stroke="#5a3a3a" stroke-width="1" stroke-dasharray="2,3"/>

  <!-- еҢ—дҫ§иҝһжҺҘ -->
  <line x1="420" y1="310" x2="500" y2="295" stroke="#4a5a7a" stroke-width="1"/>
  <line x1="420" y1="310" x2="300" y2="285" stroke="#4a5a7a" stroke-width="1"/>
  <line x1="500" y1="295" x2="650" y2="310" stroke="#4a5a7a" stroke-width="1"/>

  <!-- еҹҺе ЎдёҳвҶ’еҢ—ж№– -->
  <line x1="175" y1="380" x2="200" y2="300" stroke="#7a6a5a" stroke-width="1"/>

  <!-- ж–°еҹҺиҘҝеҢәвҶ’еҢ—ж№– -->
  <line x1="420" y1="310" x2="450" y2="275" stroke="#4a5a7a" stroke-width="1"/>

  <!-- ===== еҢәеҹҹиүІеқ— ===== -->

  <!-- в–Ҳв–Ҳ зҡҮе®¶иӢұйҮҢж®ө ж©ҷиүІзі» -->
  <!-- в‘  Castlehill -->
  <rect x="155" y="380" width="40" height="22" rx="2" fill="#8b6f47" opacity="0.75" stroke="#c9a87c" stroke-width="1.5" filter="url(#shadow)"/>
  <text x="175" y="395" text-anchor="middle" fill="#f0e6d3" font-size="8" font-weight="bold">в‘ еҹҺе Ўдёҳ</text>

  <!-- в‘ЎеёғеёӮ -->
  <rect x="165" y="410" width="45" height="22" rx="2" fill="#8b6f47" opacity="0.75" stroke="#c9a87c" stroke-width="1.5" filter="url(#shadow)"/>
  <text x="187" y="419" text-anchor="middle" fill="#f0e6d3" font-size="7" font-weight="bold">в‘ЎеёғеёӮ</text>
  <text x="187" y="429" text-anchor="middle" fill="#d0c0a0" font-size="5">Lawnmarket</text>

  <!-- в‘ўеӨ§ж•ҷе Ӯ -->
  <rect x="190" y="395" width="30" height="18" rx="2" fill="#8b6f47" opacity="0.75" stroke="#c9a87c" stroke-width="1.5" filter="url(#shadow)"/>
  <text x="205" y="408" text-anchor="middle" fill="#f0e6d3" font-size="7" font-weight="bold">в‘ўеӨ§ж•ҷе Ӯ</text>

  <!-- в‘Јй«ҳиЎ— -->
  <rect x="225" y="395" width="55" height="38" rx="2" fill="#8b6f47" opacity="0.75" stroke="#c9a87c" stroke-width="1.5" filter="url(#shadow)"/>
  <text x="252" y="410" text-anchor="middle" fill="#f0e6d3" font-size="9" font-weight="bold">в‘Јй«ҳиЎ—</text>
  <text x="252" y="422" text-anchor="middle" fill="#d0c0a0" font-size="6">еёӮж”ҝеҺ…</text>

  <!-- в‘Өдҝ®йҒ“йҷўиЎ— -->
  <rect x="290" y="388" width="55" height="22" rx="2" fill="#8b6f47" opacity="0.75" stroke="#c9a87c" stroke-width="1.5" filter="url(#shadow)"/>
  <text x="317" y="403" text-anchor="middle" fill="#f0e6d3" font-size="7" font-weight="bold">в‘Өдҝ®йҒ“йҷўиЎ—</text>

  <!-- в‘Ҙдҝ®йҒ“йҷўд№Ӣи·Ҝ -->
  <rect x="375" y="392" width="45" height="20" rx="2" fill="#8b6f47" opacity="0.75" stroke="#c9a87c" stroke-width="1.5" filter="url(#shadow)"/>
  <text x="397" y="406" text-anchor="middle" fill="#f0e6d3" font-size="7" font-weight="bold">в‘Ҙдҝ®йҒ“йҷўд№Ӣи·Ҝ</text>

  <!-- в‘ҰеҶ…е Ўй—Ё -->
  <rect x="325" y="432" width="35" height="18" rx="2" fill="#7a5a3a" opacity="0.75" stroke="#c9a87c" stroke-width="1.5" filter="url(#shadow)"/>
  <text x="342" y="445" text-anchor="middle" fill="#f0e6d3" font-size="7" font-weight="bold">в‘ҰеҶ…е Ўй—Ё</text>

  <!-- в–Ҳв–Ҳ еҚ—дҫ§ з»ҝиүІзі» -->
  <!-- в‘§ж јжӢүж–ҜеёӮеңә -->
  <rect x="165" y="458" width="55" height="22" rx="2" fill="#6a7a4a" opacity="0.75" stroke="#8aaa6a" stroke-width="1.5" filter="url(#shadow)"/>
  <text x="192" y="467" text-anchor="middle" fill="#f0e6d3" font-size="7" font-weight="bold">в‘§ж јжӢүж–ҜеёӮеңә</text>
  <text x="192" y="476" text-anchor="middle" fill="#c0d0a0" font-size="5">Grassmarket</text>

  <!-- в‘ЁиҘҝеј“иЎ— -->
  <rect x="135" y="438" width="35" height="18" rx="2" fill="#6a7a4a" opacity="0.75" stroke="#8aaa6a" stroke-width="1.5" filter="url(#shadow)"/>
  <text x="152" y="450" text-anchor="middle" fill="#f0e6d3" font-size="7" font-weight="bold">в‘ЁиҘҝеј“иЎ—</text>

  <!-- в‘©зүӣй—Ё -->
  <rect x="210" y="470" width="70" height="20" rx="1" fill="#4a5a3a" opacity="0.75" stroke="#6a7a5a" stroke-width="1.5" filter="url(#shadow)"/>
  <text x="245" y="484" text-anchor="middle" fill="#d0d0b0" font-size="8" font-weight="bold">в‘©зүӣй—Ё Cowgate</text>

  <!-- в‘Әеў“еӣӯ -->
  <rect x="155" y="485" width="50" height="25" rx="2" fill="#6a7a4a" opacity="0.75" stroke="#8aaa6a" stroke-width="1.5" filter="url(#shadow)"/>
  <text x="180" y="496" text-anchor="middle" fill="#f0e6d3" font-size="7" font-weight="bold">в‘Әеў“еӣӯ</text>
  <text x="180" y="506" text-anchor="middle" fill="#c0d0a0" font-size="5">Greyfriars</text>

  <!-- в‘«зӣ‘зӢұ -->
  <rect x="175" y="520" width="40" height="20" rx="2" fill="#6a7a4a" opacity="0.75" stroke="#8aaa6a" stroke-width="1.5" filter="url(#shadow)"/>
  <text x="195" y="534" text-anchor="middle" fill="#f0e6d3" font-size="7" font-weight="bold">в‘«зӣ‘зӢұ</text>

  <!-- в‘¬ж¬ўд№җд№Ӣең° -->
  <rect x="170" y="555" width="45" height="20" rx="2" fill="#5a3a3a" opacity="0.75" stroke="#8a5a5a" stroke-width="1.5" filter="url(#shadow)"/>
  <text x="192" y="569" text-anchor="middle" fill="#a08080" font-size="7" font-weight="bold">в‘¬ж¬ўд№җд№Ӣең°</text>

  <!-- в–Ҳв–Ҳ ең°дёӢ ж·ұзҒ°зі» -->
  <rect x="215" y="590" width="70" height="22" rx="3" fill="#2a1a1a" opacity="0.9" stroke="#5a3a3a" stroke-width="1.5" stroke-dasharray="3,2" filter="url(#shadow)"/>
  <text x="250" y="605" text-anchor="middle" fill="#8a5a5a" font-size="8" font-weight="bold">в‘ӯең°дёӢжӢұйЎ¶</text>

  <rect x="290" y="600" width="60" height="18" rx="3" fill="#2a1a1a" opacity="0.9" stroke="#5a3a3a" stroke-width="1.5" stroke-dasharray="3,2" filter="url(#shadow)"/>
  <text x="320" y="613" text-anchor="middle" fill="#8a5a5a" font-size="7" font-weight="bold">в‘®зҺӣиҺүйҮ‘е··</text>

  <rect x="240" y="635" width="55" height="18" rx="3" fill="#2a1a1a" opacity="0.9" stroke="#5a3a3a" stroke-width="1.5" stroke-dasharray="3,2" filter="url(#shadow)"/>
  <text x="267" y="648" text-anchor="middle" fill="#6a4a4a" font-size="7" font-weight="bold">в‘Ҝйҡҗз§ҳж°ҙзӘ–</text>

  <!-- в–Ҳв–Ҳ дёңдҫ§ -->
  <rect x="420" y="430" width="55" height="22" rx="2" fill="#6a5a3a" opacity="0.75" stroke="#c9a87c" stroke-width="1.5" filter="url(#shadow)"/>
  <text x="447" y="445" text-anchor="middle" fill="#f0e6d3" font-size="7" font-weight="bold">в‘°зҡҮе®«еӨ§й—Ё</text>

  <rect x="470" y="455" width="60" height="22" rx="2" fill="#6a5a3a" opacity="0.75" stroke="#c9a87c" stroke-width="1.5" filter="url(#shadow)"/>
  <text x="500" y="465" text-anchor="middle" fill="#f0e6d3" font-size="7" font-weight="bold">в‘ұе…¬еӣӯе…ҘеҸЈ</text>
  <text x="500" y="474" text-anchor="middle" fill="#c0b090" font-size="5">Holyrood Gate</text>

  <rect x="570" y="480" width="75" height="24" rx="3" fill="#6a5a3a" opacity="0.75" stroke="#c9a87c" stroke-width="1.5" filter="url(#shadow)"/>
  <text x="607" y="491" text-anchor="middle" fill="#f0e6d3" font-size="7" font-weight="bold">в‘ІеңЈи·Ҝеҫ·е…¬еӣӯ</text>
  <text x="607" y="500" text-anchor="middle" fill="#c0b090" font-size="5">Holyrood Park</text>

  <rect x="680" y="500" width="55" height="20" rx="2" fill="#6a5a3a" opacity="0.75" stroke="#c9a87c" stroke-width="1.5" filter="url(#shadow)"/>
  <text x="707" y="514" text-anchor="middle" fill="#f0e6d3" font-size="7" font-weight="bold">в‘іеіӯеЈҒжӯҘйҒ“</text>

  <!-- в–Ҳв–Ҳ й«ҳең° -->
  <rect x="760" y="525" width="65" height="22" rx="3" fill="#7a6a3a" opacity="0.75" stroke="#d0b080" stroke-width="1.5" filter="url(#shadow)"/>
  <text x="792" y="537" text-anchor="middle" fill="#f0e6d3" font-size="8" font-weight="bold">гү‘дәҡз‘ҹзҺӢеә§</text>

  <rect x="810" y="545" width="45" height="18" rx="3" fill="#7a6a3a" opacity="0.75" stroke="#d0b080" stroke-width="1.5" filter="url(#shadow)"/>
  <text x="832" y="557" text-anchor="middle" fill="#f0e6d3" font-size="6" font-weight="bold">гү’зҒ«еұұеҸЈ</text>

  <!-- в–Ҳв–Ҳ еҢ—дҫ§ -->
  <rect x="400" y="298" width="65" height="22" rx="3" fill="#4a5a7a" opacity="0.75" stroke="#7a9acc" stroke-width="1.5" filter="url(#shadow)"/>
  <text x="432" y="313" text-anchor="middle" fill="#b0c0e0" font-size="7" font-weight="bold">гү“ж–°еҹҺиҘҝеҢә</text>

  <rect x="490" y="288" width="55" height="20" rx="3" fill="#4a5a7a" opacity="0.75" stroke="#7a9acc" stroke-width="1.5" filter="url(#shadow)"/>
  <text x="517" y="302" text-anchor="middle" fill="#b0c0e0" font-size="7" font-weight="bold">гү”ж–°еҹҺдёңеҢә</text>

  <rect x="270" y="290" width="60" height="20" rx="3" fill="#4a5a7a" opacity="0.75" stroke="#7a9acc" stroke-width="1.5" filter="url(#shadow)"/>
  <text x="300" y="303" text-anchor="middle" fill="#b0c0e0" font-size="7" font-weight="bold">гү•еҢ—ж№–жІјжіҪ</text>

  <rect x="630" y="298" width="55" height="20" rx="3" fill="#4a5a7a" opacity="0.75" stroke="#7a9acc" stroke-width="1.5" filter="url(#shadow)"/>
  <text x="657" y="312" text-anchor="middle" fill="#b0c0e0" font-size="7" font-weight="bold">гү–еҲ©ж–Ҝи·Ҝ</text>

  <!-- гү—дёҚзҹҘеҺ»еӨ„ -->
  <rect x="70" y="640" width="55" height="20" rx="3" fill="#1a0a0a" opacity="0.6" stroke="#4a2a2a" stroke-width="1.5" stroke-dasharray="4,2" filter="url(#shadow)"/>
  <text x="97" y="654" text-anchor="middle" fill="#6a3a3a" font-size="7" font-weight="bold">гү—дёҚзҹҘеҺ»еӨ„</text>

  <!-- ===== еӣҫдҫӢ ===== -->
  <g transform="translate(30, 690)">
    <rect x="0" y="0" width="280" height="130" rx="4" fill="#1a1a2e" opacity="0.92" stroke="#4a4a5a" stroke-width="1"/>
    <text x="140" y="22" text-anchor="middle" fill="#c9a87c" font-size="12" font-weight="bold">еӣҫгҖҖдҫӢ</text>
    <line x1="20" y1="38" x2="60" y2="38" stroke="#7a6a5a" stroke-width="1.5"/>
    <text x="65" y="42" fill="#a0a0a0" font-size="9">ең°йқўиҝһжҺҘ</text>
    <line x1="20" y1="58" x2="60" y2="58" stroke="#5a3a3a" stroke-width="1.5" stroke-dasharray="4,2"/>
    <text x="65" y="62" fill="#a0a0a0" font-size="9">ең°дёӢйҖҡйҒ“</text>
    <line x1="20" y1="78" x2="60" y2="78" stroke="#5a3a3a" stroke-width="1" stroke-dasharray="2,3"/>
    <text x="65" y="82" fill="#a0a0a0" font-size="9">зү№ж®Ҡи·Ҝеҫ„пјҲйңҖеҸ‘зҺ°пјү</text>
    <rect x="18" y="93" width="12" height="12" rx="1" fill="#8b6f47" opacity="0.75" stroke="#c9a87c" stroke-width="1"/>
    <text x="65" y="104" fill="#a0a0a0" font-size="9">еҸҜжҺўзҙўеҢәеҹҹ</text>
    <rect x="18" y="112" width="12" height="12" rx="2" fill="#2a1a1a" opacity="0.9" stroke="#5a3a3a" stroke-width="1" stroke-dasharray="3,2"/>
    <text x="65" y="123" fill="#a0a0a0" font-size="9">йңҖиҰҒжқЎд»¶жүҚиғҪиҝӣе…Ҙ</text>
  </g>
</svg>